<?xml version="1.0" standalone="no"?><svg xmlns="http://www.w3.org/2000/svg" viewBox="0 0 1440 320"><path fill="#a2d9ff" fill-opacity="1" d="M0,192L8,192C16,192,32,192,48,176C64,160,80,128,96,122.7C112,117,128,139,144,133.3C160,128,176,96,192,112C208,128,224,192,240,186.7C256,181,272,107,288,117.3C304,128,320,224,336,261.3C352,299,368,277,384,234.7C400,192,416,128,432,122.7C448,117,464,171,480,197.3C496,224,512,224,528,218.7C544,213,560,203,576,176C592,149,608,107,624,112C640,117,656,171,672,208C688,245,704,267,720,272C736,277,752,267,768,256C784,245,800,235,816,224C832,213,848,203,864,170.7C880,139,896,85,912,69.3C928,53,944,75,960,101.3C976,128,992,160,1008,160C1024,160,1040,128,1056,122.7C1072,117,1088,139,1104,149.3C1120,160,1136,160,1152,181.3C1168,203,1184,245,1200,245.3C1216,245,1232,203,1248,186.7C1264,171,1280,181,1296,165.3C1312,149,1328,107,1344,80C1360,53,1376,43,1392,42.7C1408,43,1424,53,1432,58.7L1440,64L1440,0L1432,0C1424,0,1408,0,1392,0C1376,0,1360,0,1344,0C1328,0,1312,0,1296,0C1280,0,1264,0,1248,0C1232,0,1216,0,1200,0C1184,0,1168,0,1152,0C1136,0,1120,0,1104,0C1088,0,1072,0,1056,0C1040,0,1024,0,1008,0C992,0,976,0,960,0C944,0,928,0,912,0C896,0,880,0,864,0C848,0,832,0,816,0C800,0,784,0,768,0C752,0,736,0,720,0C704,0,688,0,672,0C656,0,640,0,624,0C608,0,592,0,576,0C560,0,544,0,528,0C512,0,496,0,480,0C464,0,448,0,432,0C416,0,400,0,384,0C368,0,352,0,336,0C320,0,304,0,288,0C272,0,256,0,240,0C224,0,208,0,192,0C176,0,160,0,144,0C128,0,112,0,96,0C80,0,64,0,48,0C32,0,16,0,8,0L0,0Z"></path></svg>